<svg xmlns="http://www.w3.org/2000/svg" viewBox="0 0 100 100" width="100" height="100">
  <!-- Building Base -->
  <rect x="25" y="40" width="50" height="50" fill="#3b82f6" rx="2" />
  
  <!-- Windows -->
  <rect x="35" y="50" width="10" height="10" fill="#ffffff" rx="1" />
  <rect x="55" y="50" width="10" height="10" fill="#ffffff" rx="1" />
  <rect x="35" y="70" width="10" height="10" fill="#ffffff" rx="1" />
  <rect x="55" y="70" width="10" height="10" fill="#ffffff" rx="1" />
  
  <!-- Entrance -->
  <rect x="45" y="70" width="10" height="20" fill="#172554" />
  
  <!-- Roof -->
  <polygon points="15,40 50,15 85,40" fill="#1d4ed8" />
  
  <!-- Shield Symbol -->
  <circle cx="50" cy="30" r="10" fill="#f97316" />
  <path d="M50,23 L53,28 L58,29 L54,33 L55,38 L50,36 L45,38 L46,33 L42,29 L47,28 Z" fill="#ffffff" />
</svg>
